<svg width="34" height="34" viewBox="0 0 34 34" fill="none" xmlns="http://www.w3.org/2000/svg">
<rect width="34" height="34" rx="10" fill="#F23A3A"/>
<path d="M23.876 22.8741C24.0088 23.007 24.0835 23.1871 24.0835 23.375C24.0835 23.5629 24.0088 23.743 23.876 23.8759C23.7431 24.0087 23.563 24.0834 23.3751 24.0834C23.1872 24.0834 23.0071 24.0087 22.8742 23.8759L17.0001 18.0017L11.126 23.8759C10.9931 24.0087 10.813 24.0834 10.6251 24.0834C10.4372 24.0834 10.2571 24.0087 10.1242 23.8759C9.99138 23.743 9.91675 23.5629 9.91675 23.375C9.91675 23.1871 9.99138 23.007 10.1242 22.8741L15.9984 17L10.1242 11.1259C9.99138 10.993 9.91675 10.8129 9.91675 10.625C9.91675 10.4371 9.99138 10.257 10.1242 10.1241C10.2571 9.99129 10.4372 9.91666 10.6251 9.91666C10.813 9.91666 10.9931 9.99129 11.126 10.1241L17.0001 15.9983L22.8742 10.1241C23.0071 9.99129 23.1872 9.91666 23.3751 9.91666C23.563 9.91666 23.7431 9.99129 23.876 10.1241C24.0088 10.257 24.0834 10.4371 24.0834 10.625C24.0834 10.8129 24.0088 10.993 23.876 11.1259L18.0018 17L23.876 22.8741Z" fill="white"/>
</svg>
