<svg width="24" height="24" viewBox="0 0 24 24" fill="none" xmlns="http://www.w3.org/2000/svg">
<g clip-path="url(#clip0_1928_114)">
<path d="M20.5562 21H18.8441V21.4453C18.8441 22.2734 18.5811 22.9336 18.0549 23.4258C17.5288 23.918 16.8912 24.0938 16.1422 23.9531L2.71281 21.6328C1.96376 21.5078 1.32618 21.1094 0.800064 20.4375C0.273946 19.7656 0.0108871 19.0156 0.0108871 18.1875V3C0.0108871 2.17188 0.345284 1.46484 1.01408 0.878906C1.68287 0.292969 2.48988 0 3.43511 0H20.5562C21.5015 0 22.3085 0.292969 22.9773 0.878906C23.6461 1.46484 23.9804 2.17188 23.9804 3V18C23.9804 18.8281 23.6461 19.5352 22.9773 20.1211C22.3085 20.707 21.5015 21 20.5562 21ZM3.43511 9.77344C3.43511 10.4922 3.70263 11.1484 4.23766 11.7422C4.309 11.8359 4.50072 11.9844 4.81282 12.1875C5.12493 12.3906 5.40136 12.6055 5.64213 12.832C5.88289 13.0586 6.00328 13.2812 6.00328 13.5V16.5C6.00328 16.7344 6.28417 16.9492 6.84596 17.1445C7.40774 17.3398 8.26826 17.5625 9.4275 17.8125C10.123 17.9688 10.725 18.0273 11.2332 17.9883C11.7415 17.9492 12.1383 17.8594 12.4237 17.7188C12.709 17.5781 12.8517 17.4219 12.8517 17.25V14.25C12.8517 14.0312 12.9721 13.8242 13.2129 13.6289C13.4536 13.4336 13.739 13.2578 14.0689 13.1016C14.3989 12.9453 14.5906 12.8438 14.6441 12.7969C14.7333 12.7344 14.8626 12.6641 15.032 12.5859C15.2014 12.5078 15.3084 12.4258 15.353 12.3398C15.3976 12.2539 15.4199 12.1016 15.4199 11.8828C15.4199 11.1797 15.1613 10.5312 14.6441 9.9375C14.1269 9.34375 13.5116 8.98438 12.7982 8.85938C12.3524 8.78125 11.9332 8.82031 11.5409 8.97656C11.0059 8.17969 10.2969 7.70312 9.41412 7.54688C8.53132 7.39062 7.83131 7.61719 7.31411 8.22656C6.90392 7.94531 6.48481 7.76562 6.05678 7.6875C5.32557 7.5625 4.70582 7.70312 4.19753 8.10938C3.68925 8.51562 3.43511 9.07031 3.43511 9.77344ZM22.2683 4.07812C22.2683 3.35938 21.9785 2.75 21.3989 2.25C20.8193 1.75 20.1282 1.5 19.3256 1.5H6.88608L16.1422 3.09375C16.8912 3.23438 17.5288 3.64062 18.0549 4.3125C18.5811 4.98438 18.8441 5.72656 18.8441 6.53906V19.5H19.3256C20.1282 19.5 20.8193 19.2461 21.3989 18.7383C21.9785 18.2305 22.2683 17.625 22.2683 16.9219V4.07812Z" fill="white"/>
</g>
<defs>
<clipPath id="clip0_1928_114">
<rect width="24" height="24" fill="white"/>
</clipPath>
</defs>
</svg>
